<svg width="20" height="20" viewBox="0 0 24 24" fill="none" xmlns="http://www.w3.org/2000/svg" aria-hidden="true">
  <rect width="24" height="24" rx="4" fill="#0F172A"/>
  <path d="M12 4a8 8 0 0 0-2.5 15.6c.4.1.5-.1.5-.3v-1c-2 .4-2.5-.5-2.7-1-.1-.3-.6-1-.9-1.1-.3-.2-.8-.6 0-.6.7 0 1.2.6 1.3.9.8 1.3 2 1 2.5.8.1-.6.4-1 .7-1.2-1.8-.2-3.6-.9-3.6-4a3.2 3.2 0 0 1 .8-2.2c-.1-.2-.4-1 .1-2 0 0 .7-.2 2.2.9a7.9 7.9 0 0 1 4 0c1.5-1.1 2.2-.9 2.2-.9.5 1 .2 1.8.1 2a3.2 3.2 0 0 1 .8 2.2c0 3.1-1.9 3.8-3.7 4 .4.2.8.8.8 1.6v2.4c0 .2.1.4.5.3A8 8 0 0 0 12 4z" fill="#fff"/>
</svg>


